# xmcd CD database file generated by RipIT.
#
# Track frame offsets:
# 150
# 16455
# 32398
# 62233
#
# Disc length: 1200 seconds
#
# Revision: 4
# Processed by: cddbd v1.5.1PL2 Copyright (c) Steve Scherf et al.
# Submitted via: RipIT 3.4 www.suwald.com/ripit/ripit.html at Fri Feb 10 19:58:51 CET 2006.
#
DISCID=2904ae04
DTITLE=Lunik - Weather (Bonus CD - O.S.T. "Globi")
DYEAR=2003
DGENRE=Trip-Hop
TTITLE0=The Most Beatiful Song
TTITLE1=Virtual Shadows
TTITLE2=The Most Beatiful Song (Orchestral Version)
TTITLE3=Data
EXTD=ID3G: 27 YEAR: 2003
EXTT0=
EXTT1=
EXTT2=
EXTT3=
PLAYORDER=
